<?xml version="1.0" encoding="UTF-8"?>
<!DOCTYPE svg PUBLIC "-//W3C//DTD SVG 1.1//EN" "http://www.w3.org/Graphics/SVG/1.1/DTD/svg11.dtd">
<!-- Creator: CorelDRAW 2017 -->
<svg xmlns="http://www.w3.org/2000/svg" xml:space="preserve" width="1181px" height="591px" version="1.1" style="shape-rendering:geometricPrecision; text-rendering:geometricPrecision; image-rendering:optimizeQuality; fill-rule:evenodd; clip-rule:evenodd"
viewBox="0 0 1181 591"
 xmlns:xlink="http://www.w3.org/1999/xlink">
 <defs>
  <style type="text/css">
   <![CDATA[
    .fil0 {fill:black}
   ]]>
  </style>
 </defs>
 <g id="Layer_x0020_1">
  <metadata id="CorelCorpID_0Corel-Layer"/>
  <path class="fil0" d="M66 0l758 0c36,0 66,30 66,67l0 0c0,37 -30,67 -66,67l-758 0c-36,0 -66,-30 -66,-67l0 0c0,-37 30,-67 66,-67zm0 456l553 0c36,0 66,30 66,67 0,37 -30,67 -66,67l-553 0c-36,0 -66,-30 -66,-67l0 0c0,-37 30,-67 66,-67zm0 -228l1049 0c36,0 66,30 66,67l0 0c0,37 -30,67 -66,67l-1049 0c-36,0 -66,-30 -66,-67l0 0c0,-37 30,-67 66,-67z"/>
 </g>
</svg>
