<?xml version="1.0" encoding="UTF-8"?>
<!DOCTYPE svg PUBLIC "-//W3C//DTD SVG 1.1//EN" "http://www.w3.org/Graphics/SVG/1.1/DTD/svg11.dtd">
<!-- Creator: CorelDRAW 2017 -->
<svg xmlns="http://www.w3.org/2000/svg" xml:space="preserve" width="210mm" height="250mm" version="1.1" style="shape-rendering:geometricPrecision; text-rendering:geometricPrecision; image-rendering:optimizeQuality; fill-rule:evenodd; clip-rule:evenodd"
viewBox="0 0 21000 25000"
 xmlns:xlink="http://www.w3.org/1999/xlink">
 <defs>
  <style type="text/css">
   <![CDATA[
    .fil0 {fill:black}
   ]]>
  </style>
 </defs>
 <g id="Layer_x0020_1">
  <metadata id="CorelCorpID_0Corel-Layer"/>
  <path class="fil0" d="M17628 22213c-20,561 -493,1049 -894,1257 -541,281 -1294,200 -1967,200l-8641 0c-721,0 -1371,80 -1926,-239 -334,-192 -860,-755 -835,-1294l-40 -1823c0,-1605 -68,-12274 27,-12684l14298 0c96,405 21,11727 26,13650 1,280 -68,726 -49,933zm-3896 -13058c-511,176 -398,712 -398,1276l-2 9885c0,514 182,997 766,814 475,-149 387,-702 387,-1269l2 -9886c0,-498 -177,-1019 -755,-819zm-3806 708l0 10565c0,994 1155,990 1155,0l0 -10565c0,-1011 -1155,-1018 -1155,0zm-3404 0l0 10565c0,696 611,977 1001,544 268,-298 151,-1373 151,-1850l0 -7896c0,-447 99,-1564 -120,-1877 -318,-454 -1031,-271 -1031,514zm-4133 -5461c481,-167 12487,-67 14709,-67 802,0 1608,-153 2041,422 451,599 110,1392 -494,1594 -431,144 -13135,63 -14735,63 -823,0 -1657,133 -2043,-417 -325,-464 -322,-1301 523,-1594zm4427 -1236c-103,-2314 1021,-1833 3687,-1833 2677,0 3791,-486 3687,1844l-7374 -10zm-1179 11c-934,0 -1877,-14 -2810,0 -910,13 -1519,382 -1882,885 -421,583 -611,1384 -274,2165 411,952 937,996 1450,1307 76,978 12,5050 12,6362 0,2140 0,4279 0,6419 0,1589 -142,3669 2064,4375 859,275 5067,134 6306,134 1242,0 5383,144 6263,-120 2192,-658 2108,-2726 2108,-4332l0 -9600c0,-1017 -62,-2248 11,-3238 382,-252 1060,-351 1455,-1311 313,-761 136,-1591 -279,-2161 -371,-509 -963,-872 -1883,-885 -932,-14 -1876,0 -2809,0 -63,-967 67,-2004 -1201,-2713 -812,-455 -2612,-285 -3665,-285 -1950,0 -3743,-390 -4608,1271 -303,583 -211,1009 -258,1727z"/>
 </g>
</svg>
