<?xml version="1.0" encoding="UTF-8"?>
<!DOCTYPE svg PUBLIC "-//W3C//DTD SVG 1.1//EN" "http://www.w3.org/Graphics/SVG/1.1/DTD/svg11.dtd">
<!-- Creator: CorelDRAW 2017 -->
<svg xmlns="http://www.w3.org/2000/svg" xml:space="preserve" width="210mm" height="180mm" version="1.1" style="shape-rendering:geometricPrecision; text-rendering:geometricPrecision; image-rendering:optimizeQuality; fill-rule:evenodd; clip-rule:evenodd"
viewBox="0 0 21000 18000"
 xmlns:xlink="http://www.w3.org/1999/xlink">
 <defs>
  <style type="text/css">
   <![CDATA[
    .fil0 {fill:wheat}
   ]]>
  </style>
 </defs>
 <g id="Layer_x0020_1">
  <metadata id="CorelCorpID_0Corel-Layer"/>
  <path class="fil0" d="M1543 15911l0 -13636 13946 0 0 1116 -1612 0c-409,0 -744,335 -744,744l0 744 -6921 0c-455,0 -906,372 -1002,826l-2173 10207 -1494 0 0 -1zm15151 -12521l0 -1089c0,-662 -542,-1204 -1204,-1204l-13946 0c-663,0 -1204,542 -1204,1204l0 13397c0,662 542,1204 1204,1204l2110 0 2736 0 11045 0c454,0 906,-372 1002,-826l2208 -10372c97,-454 -196,-826 -651,-826l-1343 0 0 -744c0,-409 -335,-744 -744,-744l-1213 0z"/>
 </g>
</svg>
