<?xml version="1.0" encoding="UTF-8"?>
<!DOCTYPE svg PUBLIC "-//W3C//DTD SVG 1.1//EN" "http://www.w3.org/Graphics/SVG/1.1/DTD/svg11.dtd">
<!-- Creator: CorelDRAW 2017 -->
<svg xmlns="http://www.w3.org/2000/svg" xml:space="preserve" width="210mm" height="210mm" version="1.1" style="shape-rendering:geometricPrecision; text-rendering:geometricPrecision; image-rendering:optimizeQuality; fill-rule:evenodd; clip-rule:evenodd"
viewBox="0 0 21000 21000"
 xmlns:xlink="http://www.w3.org/1999/xlink">
 <defs>
  <style type="text/css">
   <![CDATA[
    .fil0 {fill:wheat}
   ]]>
  </style>
 </defs>
 <g id="Layer_x0020_1">
  <metadata id="CorelCorpID_0Corel-Layer"/>
  <path class="fil0" d="M3016 501l10639 0c338,0 659,63 961,188 305,126 578,309 817,548l4331 4331c239,239 422,512 548,817 125,303 188,624 188,961l0 10639c0,693 -282,1322 -738,1777 -455,455 -1084,738 -1777,738l-14970 0c-693,0 -1322,-282 -1777,-738 -455,-455 -738,-1084 -738,-1777l0 -14970c0,-693 282,-1322 738,-1777 455,-455 1084,-738 1777,-738l1 1zm619 1564l-619 0c-261,0 -499,107 -671,279 -172,172 -279,410 -279,671l0 14970c0,261 107,499 279,671 172,172 410,279 671,279l2300 0 0 -5965c0,-693 282,-1322 738,-1777 455,-455 1084,-738 1777,-738l5752 0c693,0 1322,282 1777,738 455,455 738,1084 738,1777l0 5965 1887 0c261,0 499,-107 671,-279 172,-172 279,-410 279,-671l0 -10639c0,-139 -22,-262 -66,-369 -43,-104 -114,-205 -212,-304l-4331 -4331c-98,-98 -200,-169 -304,-212 -106,-44 -229,-66 -369,-66l-344 0 0 2462c0,693 -282,1322 -738,1777 -455,455 -1084,738 -1777,738l-4646 0c-693,0 -1322,-282 -1777,-738 -455,-455 -738,-1084 -738,-1777l0 -2462 2 1zm1564 0l0 2462c0,261 107,499 279,671 172,172 410,279 671,279l4646 0c261,0 499,-107 671,-279 172,-172 279,-410 279,-671l0 -2462 -6547 0 1 0zm9335 16871l0 -5965c0,-261 -107,-499 -279,-671 -172,-172 -410,-279 -671,-279l-5752 0c-261,0 -499,107 -671,279 -172,172 -279,410 -279,671l0 5965 7653 0 -1 0z"/>
 </g>
</svg>
