<?xml version="1.0" encoding="UTF-8"?>
<!DOCTYPE svg PUBLIC "-//W3C//DTD SVG 1.1//EN" "http://www.w3.org/Graphics/SVG/1.1/DTD/svg11.dtd">
<!-- Creator: CorelDRAW 2017 -->
<svg xmlns="http://www.w3.org/2000/svg" xml:space="preserve" width="105mm" height="105mm" version="1.1" style="shape-rendering:geometricPrecision; text-rendering:geometricPrecision; image-rendering:optimizeQuality; fill-rule:evenodd; clip-rule:evenodd"
viewBox="0 0 10500 10500"
 xmlns:xlink="http://www.w3.org/1999/xlink">
 <defs>
  <style type="text/css">
   <![CDATA[
    .fil1 {fill:#FEFEFE}
    .fil0 {fill:#FEFEFE;fill-rule:nonzero}
   ]]>
  </style>
 </defs>
 <g id="Layer_x0020_1">
  <metadata id="CorelCorpID_0Corel-Layer"/>
  <g id="_2877888695472">
   <path class="fil0" d="M884 1814l0 6865c13,40 20,78 27,121 11,63 27,149 89,276l0 0c52,104 122,208 201,287 236,236 442,279 570,306 40,8 75,16 110,26l6892 0c37,-11 73,-17 114,-25 65,-12 150,-27 270,-86l0 0c118,-59 195,-114 283,-203 46,-47 84,-89 118,-133 15,-19 86,-123 92,-146 65,-123 80,-201 93,-266 8,-41 16,-79 29,-122l0 -6900c-10,-35 -17,-71 -25,-112 -25,-131 -67,-347 -297,-574 -236,-234 -441,-273 -571,-297 -43,-8 -81,-15 -118,-26l-6866 0c-42,12 -82,19 -127,26 -220,35 -395,129 -563,297l-1 -1c-233,234 -274,448 -298,577 -8,40 -14,76 -24,109zm-555 6916l0 -6681 -158 0 183 -394c1,-3 3,-21 9,-52 36,-192 97,-512 451,-866l0 -1c120,-120 267,-231 429,-311 285,-141 460,-135 496,-151l54 -24 7072 0 56 25 63 12c194,37 502,95 859,449 351,347 413,668 451,863 7,34 8,52 10,56l26 57 0 7135 -28 43c-14,31 -16,199 -159,471l0 0c-118,224 -293,427 -498,576 -74,54 -151,101 -236,144l-1 0c-187,93 -320,117 -419,135 -28,5 -50,9 -51,10l-57 26 -7101 0 -58 -27c-2,-1 -26,-5 -60,-12 -191,-40 -498,-104 -850,-455 -56,-56 -113,-125 -167,-201 -264,-375 -279,-690 -284,-699 -37,-74 -30,-44 -30,-125z"/>
   <path class="fil0" d="M746 1796l0 6907c15,39 22,76 29,121 29,163 88,319 208,491 39,55 81,105 122,147 265,265 496,313 640,343 45,9 83,17 118,29l6933 0c37,-13 75,-19 119,-28 165,-30 319,-84 485,-205 95,-69 203,-180 271,-269 37,-48 70,-100 104,-165 74,-142 92,-230 107,-303 8,-43 16,-82 32,-126l0 -6942c-12,-34 -19,-73 -28,-119 -28,-147 -76,-389 -335,-646 -267,-264 -498,-308 -643,-335 -47,-9 -86,-16 -123,-28l-6907 0c-41,14 -81,21 -128,28 -160,26 -328,84 -496,210 -52,39 -100,82 -143,125 -264,264 -309,505 -337,649 -8,44 -16,82 -27,116l0 -1zm-278 6934l0 -6988 13 -29c36,-77 16,-462 431,-878 112,-112 243,-212 391,-285 278,-137 416,-116 490,-148l27 -12 7014 0 28 12c102,45 457,13 881,433 413,409 393,795 433,878l13 28 0 7055c-2,10 -16,13 -37,121 -18,91 -39,201 -133,379 -105,201 -273,395 -456,529 -64,47 -135,91 -218,131 -252,124 -406,116 -466,143l-28 13 -7043 0 -29 -13c-95,-45 -454,-24 -870,-440 -107,-107 -210,-255 -279,-396 -131,-264 -123,-422 -147,-469 -18,-36 -15,-23 -15,-62z"/>
   <path class="fil1" d="M8242 3915l-1145 -2c-22,-149 -5,-426 -5,-589 0,-190 -11,-374 105,-478 202,-180 790,-53 1046,-106l-3 -1275c-111,-22 -1109,-4 -1271,4 -740,42 -1268,430 -1376,1199 -29,207 -36,380 -36,602 0,86 29,617 -20,633 -56,17 -110,10 -175,9l-561 1c-19,80 -13,1134 -7,1283l755 3c37,152 -22,3569 14,3748l1516 -3c37,-174 -22,-3597 14,-3746 210,-20 905,19 1017,-12l130 -1274 1 1z"/>
   <path class="fil1" d="M8242 3915l-1145 -2c-22,-149 -5,-426 -5,-589 0,-190 -11,-374 105,-478 202,-180 790,-53 1046,-106l-3 -1275c-111,-22 -1109,-4 -1271,4 -740,42 -1268,430 -1376,1199 -29,207 -36,380 -36,602 0,86 29,617 -20,633 -56,17 -110,10 -175,9l-561 1c-19,80 -13,1134 -7,1283l755 3c37,152 -22,3569 14,3748l1516 -3c37,-174 -22,-3597 14,-3746 210,-20 905,19 1017,-12l130 -1274 1 1z"/>
  </g>
 </g>
</svg>
