<?xml version="1.0" encoding="UTF-8"?>
<!DOCTYPE svg PUBLIC "-//W3C//DTD SVG 1.1//EN" "http://www.w3.org/Graphics/SVG/1.1/DTD/svg11.dtd">
<!-- Creator: CorelDRAW 2017 -->
<svg xmlns="http://www.w3.org/2000/svg" xml:space="preserve" width="105mm" height="105mm" version="1.1" style="shape-rendering:geometricPrecision; text-rendering:geometricPrecision; image-rendering:optimizeQuality; fill-rule:evenodd; clip-rule:evenodd"
viewBox="0 0 10500 10500"
 xmlns:xlink="http://www.w3.org/1999/xlink">
 <defs>
  <style type="text/css">
   <![CDATA[
    .fil0 {fill:#FEFEFE}
   ]]>
  </style>
 </defs>
 <g id="Layer_x0020_1">
  <metadata id="CorelCorpID_0Corel-Layer"/>
  <path class="fil0" d="M1574 6513c-24,-606 -9,-1238 -8,-1846 2,-906 -38,-1597 464,-2297 67,-93 153,-163 226,-241 411,-432 1140,-526 1767,-543 614,-17 1234,-14 1849,-10 574,4 1179,-8 1703,152 440,134 803,438 1039,807 271,424 315,932 341,1506 27,601 15,1240 11,1845 -3,574 7,1179 -157,1700 -146,464 -474,839 -809,1037 -468,276 -880,317 -1499,339 -610,21 -1238,12 -1850,10 -987,-4 -2162,25 -2738,-959 -278,-476 -316,-873 -340,-1499zm3544 -2466c-665,77 -1150,682 -1074,1389 67,622 672,1156 1396,1056 620,-86 1147,-655 1049,-1383 -84,-624 -642,-1147 -1371,-1062zm-1745 1426c-57,-466 105,-1008 394,-1369 22,-27 38,-39 59,-65 147,-176 96,-104 234,-232 237,-220 664,-385 1006,-423 1109,-122 1996,731 2089,1701 107,1124 -720,1975 -1703,2078 -1098,115 -1959,-707 -2080,-1689zm3767 -2598c541,-142 783,671 230,848 -549,176 -835,-689 -230,-848zm-3289 -616c-1016,42 -1531,448 -1593,1457l-18 532c-1,35 -5,121 -6,185 -7,678 -16,1618 17,2260 94,1818 1350,1608 2922,1608 501,0 1008,7 1507,-14 1002,-42 1525,-436 1595,-1433 42,-601 40,-2376 9,-2994 -19,-375 -85,-892 -365,-1150 -154,-142 -195,-212 -444,-310 -548,-213 -1527,-161 -2124,-160 -502,1 -1001,-2 -1501,19zm6399 4182l0 -2671c0,-118 -13,-176 -18,-269 -5,-92 2,-194 1,-288 -1,-108 -20,-160 -19,-286 3,-359 -60,-735 -133,-1029 -21,-85 -43,-142 -76,-214 -96,-211 -123,-335 -316,-562 -104,-122 -246,-266 -379,-357 -273,-186 -188,-128 -478,-258 -204,-91 -731,-197 -968,-198 -242,-2 -574,-35 -862,-35l-354 -2c-316,-39 -2083,-15 -2553,-16 -337,0 -800,35 -1149,35l-550 42c-332,41 -649,127 -908,258 -288,145 -525,346 -722,605l-112 175c-91,170 -165,313 -218,517 -89,341 -74,334 -110,640 -1,6 -2,10 -2,15 -32,220 -49,744 -49,940l-5 405c-27,179 -26,2481 0,2650l22 1015c6,505 115,1215 399,1645 124,188 243,306 414,465 174,161 543,342 781,402 145,37 327,83 491,101 168,18 361,40 535,39 119,-1 176,13 269,18 98,5 208,-7 305,1 333,27 3250,38 3501,4 93,-12 191,-4 285,-4l825 -54c282,-17 729,-149 927,-257 523,-283 899,-704 1050,-1299 89,-351 143,-648 140,-1026 -1,-119 13,-176 18,-269 5,-99 -4,-206 -1,-305 3,-98 19,-148 19,-268 -1,-102 0,-203 0,-305z"/>
 </g>
</svg>
