<?xml version="1.0" encoding="UTF-8"?>
<!DOCTYPE svg PUBLIC "-//W3C//DTD SVG 1.1//EN" "http://www.w3.org/Graphics/SVG/1.1/DTD/svg11.dtd">
<!-- Creator: CorelDRAW 2017 -->
<svg xmlns="http://www.w3.org/2000/svg" xml:space="preserve" width="105mm" height="105mm" version="1.1" style="shape-rendering:geometricPrecision; text-rendering:geometricPrecision; image-rendering:optimizeQuality; fill-rule:evenodd; clip-rule:evenodd"
viewBox="0 0 10500 10500"
 xmlns:xlink="http://www.w3.org/1999/xlink">
 <defs>
  <style type="text/css">
   <![CDATA[
    .fil0 {fill:#FEFEFE}
    .fil2 {fill:#FEFEFE;fill-rule:nonzero}
    .fil1 {fill:#FEFEFE;fill-rule:nonzero}
   ]]>
  </style>
 </defs>
 <g id="Layer_x0020_1">
  <metadata id="CorelCorpID_0Corel-Layer"/>
  <g id="_2843175037696">
   <path class="fil0" d="M4667 5348l1 -783c-29,-284 100,-293 -413,-264 -726,42 -1414,593 -1624,1331 -149,526 -64,972 147,1392 90,179 230,344 361,472l218 204c257,184 593,308 928,331 128,9 298,15 410,-13 55,-14 122,-17 176,-29 265,-61 506,-184 707,-347 312,-253 544,-629 658,-1028 74,-261 65,-486 64,-793 -3,-558 -19,-1138 -3,-1694l287 160c208,104 128,65 331,138 197,72 544,141 790,136 -19,-119 -5,-376 -4,-510 1,-334 -21,-263 -24,-381 -1,-42 2,-81 -1,-124 -210,-41 -469,-27 -729,-219 -185,-136 -349,-285 -463,-490 -149,-265 -140,-374 -163,-422 -19,-38 -30,-24 -40,-78 -22,-120 33,-188 -46,-204 -75,-16 -846,-6 -963,2 -14,381 -1,785 -2,1168l-1 2342c0,437 47,702 -166,1006 -147,210 -454,399 -824,339 -622,-102 -969,-901 -492,-1392 200,-206 491,-315 882,-252l0 -1z"/>
   <path class="fil1" d="M5250 354c1352,0 2576,548 3462,1434 886,886 1434,2110 1434,3462 0,1352 -548,2576 -1434,3462 -886,886 -2110,1434 -3462,1434 -1352,0 -2576,-548 -3462,-1434 -886,-886 -1434,-2110 -1434,-3462 0,-1352 548,-2576 1434,-3462 886,-886 2110,-1434 3462,-1434zm3217 1679c-823,-823 -1960,-1332 -3217,-1332 -1256,0 -2393,509 -3217,1332 -823,823 -1332,1960 -1332,3217 0,1256 509,2393 1332,3217 823,823 1960,1332 3217,1332 1256,0 2393,-509 3217,-1332 823,-823 1332,-1960 1332,-3217 0,-1256 -509,-2393 -1332,-3217z"/>
   <path class="fil2" d="M5250 250c677,0 1322,135 1912,379 612,254 1163,625 1624,1086 461,461 832,1011 1086,1624 244,589 379,1235 379,1912 0,677 -135,1322 -379,1912 -254,612 -625,1163 -1086,1624 -461,461 -1011,832 -1624,1086 -589,244 -1235,379 -1912,379 -677,0 -1322,-135 -1912,-379 -612,-254 -1163,-625 -1624,-1086 -461,-461 -832,-1011 -1086,-1624 -244,-589 -379,-1235 -379,-1912 0,-677 135,-1322 379,-1912 254,-612 625,-1163 1086,-1624 461,-461 1011,-832 1624,-1086 589,-244 1235,-379 1912,-379zm1833 571c-564,-234 -1183,-363 -1833,-363 -650,0 -1269,129 -1833,363 -586,243 -1113,599 -1555,1041 -442,442 -798,970 -1041,1555 -234,564 -363,1183 -363,1833 0,650 129,1269 363,1833 243,586 599,1113 1041,1555 442,442 970,798 1555,1041 564,234 1183,363 1833,363 650,0 1269,-129 1833,-363 586,-243 1113,-599 1555,-1041 442,-442 798,-970 1041,-1555 234,-564 363,-1183 363,-1833 0,-650 -129,-1269 -363,-1833 -243,-586 -599,-1113 -1041,-1555 -442,-442 -970,-798 -1555,-1041zm1310 1286c-410,-410 -899,-740 -1443,-965 -523,-217 -1098,-336 -1700,-336 -603,0 -1177,120 -1700,336 -544,225 -1033,555 -1443,965l0 0c-410,410 -740,899 -965,1443 -217,523 -336,1098 -336,1700 0,603 120,1177 336,1700 225,544 555,1033 965,1443l0 0c410,410 899,740 1443,965 523,217 1098,336 1700,336 603,0 1177,-120 1700,-336 544,-225 1033,-555 1443,-965l0 0c410,-410 740,-899 965,-1443 217,-523 336,-1098 336,-1700 0,-603 -120,-1177 -336,-1700 -225,-544 -555,-1033 -965,-1443l0 0zm-1364 -1157c570,236 1083,582 1511,1010l0 0c429,429 774,941 1010,1511 227,548 352,1149 352,1779 0,630 -125,1231 -353,1779 -236,570 -582,1083 -1010,1511l0 0c-429,429 -941,774 -1511,1010 -548,227 -1149,352 -1779,352 -630,0 -1231,-125 -1779,-353 -570,-236 -1083,-582 -1511,-1010l0 0c-429,-429 -774,-941 -1010,-1511 -227,-548 -352,-1149 -352,-1779 0,-630 125,-1231 353,-1779 236,-570 582,-1083 1010,-1511l0 0c429,-429 941,-774 1511,-1010 548,-227 1149,-352 1779,-352 630,0 1231,125 1779,353z"/>
  </g>
 </g>
</svg>
