<?xml version="1.0" encoding="UTF-8"?>
<!DOCTYPE svg PUBLIC "-//W3C//DTD SVG 1.1//EN" "http://www.w3.org/Graphics/SVG/1.1/DTD/svg11.dtd">
<!-- Creator: CorelDRAW 2017 -->
<svg xmlns="http://www.w3.org/2000/svg" xml:space="preserve" width="210mm" height="140mm" version="1.1" style="shape-rendering:geometricPrecision; text-rendering:geometricPrecision; image-rendering:optimizeQuality; fill-rule:evenodd; clip-rule:evenodd"
viewBox="0 0 21000 14000"
 xmlns:xlink="http://www.w3.org/1999/xlink">
 <defs>
  <style type="text/css">
   <![CDATA[
    .fil0 {fill:black}
   ]]>
  </style>
 </defs>
 <g id="Layer_x0020_1">
  <metadata id="CorelCorpID_0Corel-Layer"/>
  <path class="fil0" d="M1983 5494c5678,0 11356,0 17034,0 809,0 1483,674 1483,1506 0,0 0,0 0,0 0,831 -674,1506 -1483,1506 -5678,0 -11356,0 -17034,0 -809,0 -1483,-674 -1483,-1506 0,0 0,0 0,0 0,-831 674,-1506 1483,-1506zm0 -5124l17034 0c809,0 1483,674 1483,1506l0 0c0,831 -674,1506 -1483,1506l-17034 0c-809,0 -1483,-674 -1483,-1506l0 0c0,-831 674,-1506 1483,-1506zm0 10247l17034 0c809,0 1483,674 1483,1506l0 0c0,831 -674,1506 -1483,1506l-17034 0c-809,0 -1483,-674 -1483,-1506l0 0c0,-831 674,-1506 1483,-1506z"/>
 </g>
</svg>
