<?xml version="1.0" encoding="UTF-8"?>
<!DOCTYPE svg PUBLIC "-//W3C//DTD SVG 1.1//EN" "http://www.w3.org/Graphics/SVG/1.1/DTD/svg11.dtd">
<!-- Creator: CorelDRAW 2017 -->
<svg xmlns="http://www.w3.org/2000/svg" xml:space="preserve" width="210mm" height="210mm" version="1.1" style="shape-rendering:geometricPrecision; text-rendering:geometricPrecision; image-rendering:optimizeQuality; fill-rule:evenodd; clip-rule:evenodd"
viewBox="0 0 21000 21000"
 xmlns:xlink="http://www.w3.org/1999/xlink">
 <defs>
  <style type="text/css">
   <![CDATA[
    .fil0 {fill:black}
   ]]>
  </style>
 </defs>
 <g id="Layer_x0020_1">
  <metadata id="CorelCorpID_0Corel-Layer"/>
  <path class="fil0" d="M7983 5613c369,-95 638,36 894,182l6656 3851c485,347 670,1038 172,1565 -222,235 -5488,3219 -5889,3448 -342,196 -1170,758 -1581,764 -768,12 -1046,-600 -1045,-1252l0 -7032c0,-823 60,-1339 793,-1527zm12517 4262l0 1177c-12,649 -75,1096 -343,2152 -626,2462 -2509,4790 -4722,6020 -145,81 -237,120 -380,206 -139,83 -253,110 -401,185 -902,455 -2535,886 -3880,886 -1661,0 -2654,-184 -4119,-764 -172,-68 -244,-117 -401,-185 -451,-193 -1162,-617 -1557,-904 -1351,-977 -2692,-2525 -3331,-4091 -256,-626 -444,-1110 -608,-1853 -148,-672 -257,-1404 -257,-2204 0,-3180 1439,-5924 3840,-7878 353,-287 698,-505 1094,-742 270,-162 483,-292 792,-419 1699,-702 2425,-960 4548,-960 2811,0 5609,1446 7316,3465 98,116 172,195 271,315 1155,1405 2139,3771 2139,5595z"/>
 </g>
</svg>
